<svg xmlns="http://www.w3.org/2000/svg" version="1.1" xmlns:xlink="http://www.w3.org/1999/xlink" xmlns:svgjs="http://svgjs.com/svgjs" width="1440" height="560" preserveAspectRatio="none" viewBox="0 0 1440 560"><g mask="url(&quot;#SvgjsMask1000&quot;)" fill="none"><rect width="1440" height="560" x="0" y="0" fill="#1e3266"></rect><path d="M1512 560L0 560 L0 369.69Q33.13 330.82, 72 363.95Q89.84 309.79, 144 327.63Q213.64 277.27, 264 346.91Q308.56 319.48, 336 364.04Q370.06 278.1, 456 312.16Q476.46 260.63, 528 281.09Q617.75 250.83, 648 340.58Q693.14 313.73, 720 358.87Q727.93 294.8, 792 302.72Q835.55 274.27, 864 317.83Q909.2 243.03, 984 288.23Q1044.37 276.6, 1056 336.97Q1105.7 314.67, 1128 364.37Q1139.65 304.02, 1200 315.68Q1267.03 262.71, 1320 329.73Q1366.26 256, 1440 302.26Q1495.43 285.69, 1512 341.13z" fill="#182f5d"></path><path d="M1512 560L0 560 L0 395.54Q18.29 341.83, 72 360.12Q144.22 312.34, 192 384.55Q269.15 341.7, 312 418.85Q317 351.86, 384 356.86Q425.62 326.48, 456 368.09Q533.39 325.49, 576 402.88Q633.96 388.84, 648 446.79Q701.77 380.56, 768 434.33Q820.19 366.52, 888 418.71Q922.57 333.28, 1008 367.85Q1049.31 337.16, 1080 378.47Q1139.02 365.5, 1152 424.52Q1195.03 347.54, 1272 390.57Q1317.27 315.84, 1392 361.1Q1457.35 306.45, 1512 371.79z" fill="#25467d"></path><path d="M1488 560L0 560 L0 456.88Q76.34 413.22, 120 489.55Q123.34 420.89, 192 424.23Q254.7 414.93, 264 477.63Q342.24 435.87, 384 514.1Q407.08 417.18, 504 440.26Q546.95 411.2, 576 454.15Q629.37 435.52, 648 488.89Q698.56 419.44, 768 470Q807.35 389.35, 888 428.7Q978.39 399.1, 1008 489.49Q1051.19 460.69, 1080 503.88Q1118.81 422.69, 1200 461.5Q1230.2 419.7, 1272 449.9Q1320.59 426.49, 1344 475.08Q1355.64 414.72, 1416 426.36Q1457.99 396.35, 1488 438.34z" fill="#356cb1"></path><path d="M1512 560L0 560 L0 539.71Q41.56 461.27, 120 502.84Q206.03 468.87, 240 554.89Q283.05 477.94, 360 520.99Q386.96 475.95, 432 502.91Q490.45 489.37, 504 547.82Q550.69 522.51, 576 569.19Q600.74 473.93, 696 498.66Q737.41 468.08, 768 509.49Q836.85 458.34, 888 527.19Q933.76 500.96, 960 546.72Q1026.88 493.6, 1080 560.48Q1092.59 501.07, 1152 513.65Q1218.17 459.82, 1272 525.99Q1340.73 474.72, 1392 543.45Q1471.48 502.93, 1512 582.41z" fill="white"></path></g><defs><mask id="SvgjsMask1000"><rect width="1440" height="560" fill="#ffffff"></rect></mask></defs></svg>