<svg xmlns="http://www.w3.org/2000/svg" version="1.1" xmlns:xlink="http://www.w3.org/1999/xlink" xmlns:svgjs="http://svgjs.com/svgjs" width="1440" height="560" preserveAspectRatio="none" viewBox="0 0 1440 560"><g mask="url(&quot;#SvgjsMask1034&quot;)" fill="none"><rect width="1440" height="560" x="0" y="0" fill="rgba(57, 72, 103, 1)"></rect><g transform="translate(0, 0)" stroke-linecap="round"><path d="M260 164.22 L260 395.78" stroke-width="15" stroke="rgba(235, 99, 99, 1)"></path><path d="M280 262.59000000000003 L280 297.41" stroke-width="15" stroke="rgba(136, 136, 136, 1)"></path><path d="M300 241.73 L300 271.73" stroke-width="15" stroke="rgba(136, 136, 136, 1)"></path><path d="M300 294.23 L300 318.27" stroke-width="15" stroke="rgba(235, 99, 99, 1)"></path><path d="M320 242.45 L320 272.45" stroke-width="15" stroke="rgba(136, 136, 136, 1)"></path><path d="M320 294.95 L320 317.55" stroke-width="15" stroke="rgba(235, 99, 99, 1)"></path><path d="M340 185.94 L340 215.94" stroke-width="15" stroke="rgba(136, 136, 136, 1)"></path><path d="M340 238.44 L340 283.44" stroke-width="15" stroke="rgba(235, 99, 99, 1)"></path><path d="M340 305.94 L340 374.06" stroke-width="15" stroke="rgba(235, 99, 99, 1)"></path><path d="M360 257.47 L360 302.54" stroke-width="15" stroke="rgba(136, 136, 136, 1)"></path><path d="M380 261.85 L380 298.15" stroke-width="15" stroke="rgba(235, 99, 99, 1)"></path><path d="M400 176.72 L400 221.72" stroke-width="15" stroke="rgba(235, 99, 99, 1)"></path><path d="M400 244.22 L400 383.28" stroke-width="15" stroke="rgba(136, 136, 136, 1)"></path><path d="M420 177.85 L420 252.85" stroke-width="15" stroke="rgba(235, 99, 99, 1)"></path><path d="M420 275.35 L420 320.35" stroke-width="15" stroke="rgba(235, 99, 99, 1)"></path><path d="M420 342.85 L420 382.15" stroke-width="15" stroke="rgba(136, 136, 136, 1)"></path><path d="M440 242.22 L440 272.22" stroke-width="15" stroke="rgba(136, 136, 136, 1)"></path><path d="M440 294.72 L440 317.78" stroke-width="15" stroke="rgba(136, 136, 136, 1)"></path><path d="M460 150.88 L460 195.88" stroke-width="15" stroke="rgba(235, 99, 99, 1)"></path><path d="M460 218.38 L460 308.38" stroke-width="15" stroke="rgba(136, 136, 136, 1)"></path><path d="M460 330.88 L460 409.12" stroke-width="15" stroke="rgba(235, 99, 99, 1)"></path><path d="M480 138.16 L480 333.15999999999997" stroke-width="15" stroke="rgba(136, 136, 136, 1)"></path><path d="M480 355.65999999999997 L480 421.84" stroke-width="15" stroke="rgba(136, 136, 136, 1)"></path><path d="M500 220.7 L500 235.7" stroke-width="15" stroke="rgba(136, 136, 136, 1)"></path><path d="M500 258.2 L500 288.2" stroke-width="15" stroke="rgba(235, 99, 99, 1)"></path><path d="M500 310.7 L500 339.3" stroke-width="15" stroke="rgba(136, 136, 136, 1)"></path><path d="M520 167.73 L520 227.73" stroke-width="15" stroke="rgba(136, 136, 136, 1)"></path><path d="M520 250.23 L520 392.27" stroke-width="15" stroke="rgba(136, 136, 136, 1)"></path><path d="M540 107.29 L540 362.29" stroke-width="15" stroke="rgba(235, 99, 99, 1)"></path><path d="M540 384.79 L540 414.79" stroke-width="15" stroke="rgba(235, 99, 99, 1)"></path><path d="M540 437.29 L540 452.71" stroke-width="15" stroke="rgba(235, 99, 99, 1)"></path><path d="M560 204.89 L560 294.89" stroke-width="15" stroke="rgba(235, 99, 99, 1)"></path><path d="M560 317.39 L560 355.11" stroke-width="15" stroke="rgba(136, 136, 136, 1)"></path><path d="M580 192.88 L580 207.88" stroke-width="15" stroke="rgba(136, 136, 136, 1)"></path><path d="M580 230.38 L580 367.13" stroke-width="15" stroke="rgba(235, 99, 99, 1)"></path><path d="M600 215.16 L600 344.84" stroke-width="15" stroke="rgba(136, 136, 136, 1)"></path><path d="M620 166.93 L620 196.93" stroke-width="15" stroke="rgba(136, 136, 136, 1)"></path><path d="M620 219.43 L620 264.43" stroke-width="15" stroke="rgba(136, 136, 136, 1)"></path><path d="M620 286.93 L620 393.07" stroke-width="15" stroke="rgba(136, 136, 136, 1)"></path><path d="M640 158.53 L640 323.53" stroke-width="15" stroke="rgba(235, 99, 99, 1)"></path><path d="M640 346.03 L640 401.48" stroke-width="15" stroke="rgba(235, 99, 99, 1)"></path><path d="M660 126 L660 434" stroke-width="15" stroke="rgba(136, 136, 136, 1)"></path><path d="M680 246.19 L680 261.19" stroke-width="15" stroke="rgba(136, 136, 136, 1)"></path><path d="M680 283.69 L680 313.81" stroke-width="15" stroke="rgba(136, 136, 136, 1)"></path><path d="M700 106.48 L700 151.48000000000002" stroke-width="15" stroke="rgba(136, 136, 136, 1)"></path><path d="M700 173.98000000000002 L700 293.98" stroke-width="15" stroke="rgba(136, 136, 136, 1)"></path><path d="M700 316.48 L700 453.52" stroke-width="15" stroke="rgba(235, 99, 99, 1)"></path><path d="M720 174.36 L720 324.36" stroke-width="15" stroke="rgba(136, 136, 136, 1)"></path><path d="M720 346.86 L720 385.64" stroke-width="15" stroke="rgba(136, 136, 136, 1)"></path><path d="M740 179.27 L740 284.27" stroke-width="15" stroke="rgba(235, 99, 99, 1)"></path><path d="M740 306.77 L740 336.77" stroke-width="15" stroke="rgba(136, 136, 136, 1)"></path><path d="M740 359.27 L740 380.73" stroke-width="15" stroke="rgba(136, 136, 136, 1)"></path><path d="M760 111.59 L760 351.59000000000003" stroke-width="15" stroke="rgba(235, 99, 99, 1)"></path><path d="M760 374.09000000000003 L760 389.09000000000003" stroke-width="15" stroke="rgba(235, 99, 99, 1)"></path><path d="M760 411.59000000000003 L760 448.41" stroke-width="15" stroke="rgba(136, 136, 136, 1)"></path><path d="M780 150.03 L780 270.03" stroke-width="15" stroke="rgba(235, 99, 99, 1)"></path><path d="M780 292.53 L780 337.53" stroke-width="15" stroke="rgba(235, 99, 99, 1)"></path><path d="M780 360.03 L780 409.98" stroke-width="15" stroke="rgba(235, 99, 99, 1)"></path><path d="M800 264.1 L800 295.9" stroke-width="15" stroke="rgba(235, 99, 99, 1)"></path><path d="M820 146.53 L820 413.48" stroke-width="15" stroke="rgba(136, 136, 136, 1)"></path><path d="M840 191.84 L840 221.84" stroke-width="15" stroke="rgba(136, 136, 136, 1)"></path><path d="M840 244.34 L840 274.34000000000003" stroke-width="15" stroke="rgba(136, 136, 136, 1)"></path><path d="M840 296.84000000000003 L840 368.16" stroke-width="15" stroke="rgba(136, 136, 136, 1)"></path><path d="M860 141.25 L860 321.25" stroke-width="15" stroke="rgba(235, 99, 99, 1)"></path><path d="M860 343.75 L860 358.75" stroke-width="15" stroke="rgba(136, 136, 136, 1)"></path><path d="M860 381.25 L860 418.75" stroke-width="15" stroke="rgba(136, 136, 136, 1)"></path><path d="M880 191.35 L880 266.35" stroke-width="15" stroke="rgba(136, 136, 136, 1)"></path><path d="M880 288.85 L880 303.85" stroke-width="15" stroke="rgba(235, 99, 99, 1)"></path><path d="M880 326.35 L880 368.65" stroke-width="15" stroke="rgba(136, 136, 136, 1)"></path><path d="M900 226.44 L900 333.56" stroke-width="15" stroke="rgba(235, 99, 99, 1)"></path><path d="M920 177 L920 297" stroke-width="15" stroke="rgba(136, 136, 136, 1)"></path><path d="M920 319.5 L920 334.5" stroke-width="15" stroke="rgba(235, 99, 99, 1)"></path><path d="M920 357 L920 383" stroke-width="15" stroke="rgba(235, 99, 99, 1)"></path><path d="M940 241.08 L940 271.08000000000004" stroke-width="15" stroke="rgba(136, 136, 136, 1)"></path><path d="M940 293.58000000000004 L940 318.92" stroke-width="15" stroke="rgba(235, 99, 99, 1)"></path><path d="M960 201.59 L960 246.59" stroke-width="15" stroke="rgba(235, 99, 99, 1)"></path><path d="M960 269.09000000000003 L960 299.09000000000003" stroke-width="15" stroke="rgba(136, 136, 136, 1)"></path><path d="M960 321.59000000000003 L960 358.41" stroke-width="15" stroke="rgba(136, 136, 136, 1)"></path><path d="M980 258.84000000000003 L980 301.17" stroke-width="15" stroke="rgba(235, 99, 99, 1)"></path><path d="M1000 230.99 L1000 245.99" stroke-width="15" stroke="rgba(136, 136, 136, 1)"></path><path d="M1000 268.49 L1000 283.49" stroke-width="15" stroke="rgba(235, 99, 99, 1)"></path><path d="M1000 305.99 L1000 329.01" stroke-width="15" stroke="rgba(136, 136, 136, 1)"></path><path d="M1020 232.22 L1020 247.22" stroke-width="15" stroke="rgba(235, 99, 99, 1)"></path><path d="M1020 269.72 L1020 284.72" stroke-width="15" stroke="rgba(136, 136, 136, 1)"></path><path d="M1020 307.22 L1020 327.78" stroke-width="15" stroke="rgba(136, 136, 136, 1)"></path><path d="M1040 165.13 L1040 394.88" stroke-width="15" stroke="rgba(136, 136, 136, 1)"></path><path d="M1060 135.93 L1060 240.93" stroke-width="15" stroke="rgba(235, 99, 99, 1)"></path><path d="M1060 263.43 L1060 424.07" stroke-width="15" stroke="rgba(235, 99, 99, 1)"></path><path d="M1080 233.28 L1080 248.28" stroke-width="15" stroke="rgba(136, 136, 136, 1)"></path><path d="M1080 270.78 L1080 285.78" stroke-width="15" stroke="rgba(136, 136, 136, 1)"></path><path d="M1080 308.28 L1080 326.73" stroke-width="15" stroke="rgba(136, 136, 136, 1)"></path><path d="M1100 228.83 L1100 243.83" stroke-width="15" stroke="rgba(235, 99, 99, 1)"></path><path d="M1100 266.33000000000004 L1100 281.33000000000004" stroke-width="15" stroke="rgba(235, 99, 99, 1)"></path><path d="M1100 303.83000000000004 L1100 331.17" stroke-width="15" stroke="rgba(136, 136, 136, 1)"></path><path d="M1120 148.85 L1120 163.85" stroke-width="15" stroke="rgba(136, 136, 136, 1)"></path><path d="M1120 186.35 L1120 351.35" stroke-width="15" stroke="rgba(235, 99, 99, 1)"></path><path d="M1120 373.85 L1120 411.15" stroke-width="15" stroke="rgba(235, 99, 99, 1)"></path><path d="M1140 160.19 L1140 205.19" stroke-width="15" stroke="rgba(235, 99, 99, 1)"></path><path d="M1140 227.69 L1140 399.81" stroke-width="15" stroke="rgba(136, 136, 136, 1)"></path><path d="M1160 182 L1160 302" stroke-width="15" stroke="rgba(136, 136, 136, 1)"></path><path d="M1160 324.5 L1160 378" stroke-width="15" stroke="rgba(235, 99, 99, 1)"></path><path d="M1180 192.83 L1180 282.83000000000004" stroke-width="15" stroke="rgba(136, 136, 136, 1)"></path><path d="M1180 305.33000000000004 L1180 320.33000000000004" stroke-width="15" stroke="rgba(136, 136, 136, 1)"></path><path d="M1180 342.83000000000004 L1180 367.17" stroke-width="15" stroke="rgba(136, 136, 136, 1)"></path></g></g><defs><mask id="SvgjsMask1034"><rect width="1440" height="560" fill="#ffffff"></rect></mask></defs></svg>